# xmcd
#
# Track frame offsets: 
#        150
#        16953
#        34597
#        50159
#        66226
#        88738
#        111207
#        130562
#        143572
#        156967
#        170945
#        190321
#
# Disc length: 2799 seconds
#
# Revision: 0
# Processed by: cddbd v1.5.1PL0 Copyright (c) Steve Scherf et al.
# Submitted via: ExactAudioCopy v0.95a5
#
DISCID=a70aed0c
DTITLE=Tish Hinojosa - Sign of Truth
DYEAR=1900
DGENRE=Country
TTITLE0=Fire in Winter
TTITLE1=Mona Lisa by the Rio Grande
TTITLE2=Sign of Truth
TTITLE3=Taste of Dying Summer
TTITLE4=Fence Post
TTITLE5=Roses Around My Feet
TTITLE6=I Have No Answers
TTITLE7=Hey Little Love
TTITLE8=Wildflowers
TTITLE9=Faded Souvenir
TTITLE10=The Dreams I Have Seen
TTITLE11=Song for the Journey
EXTD=
EXTT0=
EXTT1=
EXTT2=
EXTT3=
EXTT4=
EXTT5=
EXTT6=
EXTT7=
EXTT8=
EXTT9=
EXTT10=
EXTT11=
PLAYORDER=
